<?xml version="1.0" encoding="UTF-8"?><svg id="Layer_2" xmlns="http://www.w3.org/2000/svg" viewBox="0 0 371.39 76.18"><defs><style>.cls-1{fill:#fff;}</style></defs><g id="Calque_1"><path class="cls-1" d="m71.42,4.76v14.28h-38.42c-.1,1.62-.21,3.21-.33,4.76h28.76l-4.76,14.28h-25.57c-2.29,14.57-6.3,25.68-12.05,33.33l-14.28-14.28c4.54-4.54,8.36-10.89,11.47-19.05H0v-14.28h20.47c.38-1.56.73-3.14,1.05-4.76H7.48V4.76h63.94Z"/><path class="cls-1" d="m95.23,33.33c0,3.94,1.4,7.3,4.19,10.09l-13.47,18.24c-6.51-6.51-9.76-14.36-9.76-23.57V14.28l19.05-4.76v23.81Zm47.61,4.76c0,9.21-3.25,17.06-9.76,23.57-6.51,6.51-14.36,9.76-23.57,9.76v-23.81c3.94,0,7.3-1.4,10.09-4.19,2.79-2.79,4.19-6.16,4.19-10.09V0l19.05,4.76v33.33Z"/><path class="cls-1" d="m166.65,54.66v16.76h-19.05V28.57h19.05v14.62c13.08.7,24.19,2.38,33.33,5.05V4.76l19.05,4.76v61.9h-19.05v-4.05c-7.75-5.59-18.86-9.82-33.33-12.71Z"/><path class="cls-1" d="m262.73,52.38c2.13-21.74,8.19-37.61,18.19-47.61l14.28,19.05c-12.7,12.7-20.63,28.57-23.81,47.61h-42.85l-4.76-19.05h18.66c-4.25-10.86-10.48-20.38-18.66-28.57l14.28-19.05c10,10,16.06,25.87,18.19,47.61h6.48Z"/><path class="cls-1" d="m319.01,41.09v30.33l-19.05-4.76V4.76h19.05v7.33c13.78,20.76,24.89,33.58,33.33,38.47V4.76h19.05v71.42l-19.05-4.76v-7.24c-12.86-6.82-23.97-14.52-33.33-23.09Z"/></g></svg>